ffmpeg version 3.4.8-0ubuntu0.2 Copyright (c) 2000-2020 the FFmpeg developers
  built with gcc 7 (Ubuntu 7.5.0-3ubuntu1~18.04)
  configuration: --prefix=/usr --extra-version=0ubuntu0.2 --toolchain=hardened --libdir=/usr/lib/x86_64-linux-gnu --incdir=/usr/include/x86_64-linux-gnu --enable-gpl --disable-stripping --enable-avresample --enable-avisynth --enable-gnutls --enable-ladspa --enable-libass --enable-libbluray --enable-libbs2b --enable-libcaca --enable-libcdio --enable-libflite --enable-libfontconfig --enable-libfreetype --enable-libfribidi --enable-libgme --enable-libgsm --enable-libmp3lame --enable-libmysofa --enable-libopenjpeg --enable-libopenmpt --enable-libopus --enable-libpulse --enable-librubberband --enable-librsvg --enable-libshine --enable-libsnappy --enable-libsoxr --enable-libspeex --enable-libssh --enable-libtheora --enable-libtwolame --enable-libvorbis --enable-libvpx --enable-libwavpack --enable-libwebp --enable-libx265 --enable-libxml2 --enable-libxvid --enable-libzmq --enable-libzvbi --enable-omx --enable-openal --enable-opengl --enable-sdl2 --enable-libdc1394 --enable-libdrm --enable-libiec61883 --enable-chromaprint --enable-frei0r --enable-libopencv --enable-libx264 --enable-shared
  libavutil      55. 78.100 / 55. 78.100
  libavcodec     57.107.100 / 57.107.100
  libavformat    57. 83.100 / 57. 83.100
  libavdevice    57. 10.100 / 57. 10.100
  libavfilter     6.107.100 /  6.107.100
  libavresample   3.  7.  0 /  3.  7.  0
  libswscale      4.  8.100 /  4.  8.100
  libswresample   2.  9.100 /  2.  9.100
  libpostproc    54.  7.100 / 54.  7.100
[rawvideo @ 0x555865296a20] Estimating duration from bitrate, this may be inaccurate
Input #0, rawvideo, from '../../SVC-Encoder-20220109T061506Z-001/SVC-Encoder/Dataset/RollerCoaster/ERP_8x8/tile_yuv/Tile_42_480x240.yuv':
  Duration: 00:00:10.00, start: 0.000000, bitrate: 41472 kb/s
    Stream #0:0: Video: rawvideo (I420 / 0x30323449), yuv420p, 480x240, 41472 kb/s, 30 tbr, 30 tbn, 30 tbc
Stream mapping:
  Stream #0:0 -> #0:0 (rawvideo (native) -> h264 (libx264))
Press [q] to stop, [?] for help
[libx264 @ 0x5558652a3c60] using cpu capabilities: MMX2 SSE2Fast LZCNT SSSE3 SSE4.2 AVX
[libx264 @ 0x5558652a3c60] profile High, level 2.1
Output #0, rawvideo, to 'RollerCoaster_Tile_42_480x240_x264_QP_28.h264':
  Metadata:
    encoder         : Lavf57.83.100
    Stream #0:0: Video: h264 (libx264), yuv420p, 480x240, q=-1--1, 30 fps, 30 tbn, 30 tbc
    Metadata:
      encoder         : Lavc57.107.100 libx264
    Side data:
      cpb: bitrate max/min/avg: 0/0/0 buffer size: 0 vbv_delay: -1
frame=  144 fps=0.0 q=34.0 PSNR=Y:nan U:nan V:nan *:nan size=      99kB time=00:00:03.36 bitrate= 240.7kbits/s speed=6.63x    frame=  279 fps=276 q=34.0 PSNR=Y:nan U:nan V:nan *:nan size=     215kB time=00:00:07.86 bitrate= 223.6kbits/s speed=7.78x    frame=  300 fps=243 q=34.0 LPSNR=Y:inf U:inf V:inf *:inf size=     273kB time=00:00:09.93 bitrate= 224.8kbits/s speed=8.03x    
video:273kB audio:0kB subtitle:0kB other streams:0kB global headers:0kB muxing overhead: 0.000000%
[libx264 @ 0x5558652a3c60] frame I:2     Avg QP:25.90  size: 13952  PSNR Mean Y:39.92 U:46.34 V:47.87 Avg:41.28 Global:41.28
[libx264 @ 0x5558652a3c60] frame P:76    Avg QP:27.77  size:  2586  PSNR Mean Y:37.45 U:46.05 V:47.61 Avg:38.96 Global:38.91
[libx264 @ 0x5558652a3c60] frame B:222   Avg QP:33.40  size:   247  PSNR Mean Y:37.28 U:45.99 V:47.51 Avg:38.80 Global:38.77
[libx264 @ 0x5558652a3c60] consecutive B-frames:  1.0%  0.7%  1.0% 97.3%
[libx264 @ 0x5558652a3c60] mb I  I16..4:  0.9% 76.4% 22.7%
[libx264 @ 0x5558652a3c60] mb P  I16..4:  0.0%  0.0%  0.0%  P16..4: 45.6% 26.8% 13.5%  0.0%  0.0%    skip:14.0%
[libx264 @ 0x5558652a3c60] mb B  I16..4:  0.0%  0.0%  0.0%  B16..8: 40.9%  1.6%  0.0%  direct: 0.1%  skip:57.4%  L0:30.9% L1:65.5% BI: 3.6%
[libx264 @ 0x5558652a3c60] 8x8 transform intra:76.5% inter:59.7%
[libx264 @ 0x5558652a3c60] coded y,uvDC,uvAC intra: 97.8% 83.4% 28.9% inter: 10.0% 4.8% 0.0%
[libx264 @ 0x5558652a3c60] i16 v,h,dc,p:  0%  0% 80% 20%
[libx264 @ 0x5558652a3c60] i8 v,h,dc,ddl,ddr,vr,hd,vl,hu:  6% 10% 12% 14%  6%  4% 10% 28% 10%
[libx264 @ 0x5558652a3c60] i4 v,h,dc,ddl,ddr,vr,hd,vl,hu:  6% 11%  7% 20%  6%  3%  8% 32%  7%
[libx264 @ 0x5558652a3c60] i8c dc,h,v,p: 46% 19% 16% 19%
[libx264 @ 0x5558652a3c60] Weighted P-Frames: Y:0.0% UV:0.0%
[libx264 @ 0x5558652a3c60] ref P L0: 64.8% 21.6% 12.7%  0.9%
[libx264 @ 0x5558652a3c60] ref B L0: 95.8%  3.7%  0.4%
[libx264 @ 0x5558652a3c60] ref B L1: 96.3%  3.7%
[libx264 @ 0x5558652a3c60] PSNR Mean Y:37.342 U:46.011 V:47.540 Avg:38.857 Global:38.815 kb/s:223.34
